<?xml version="1.0" encoding="UTF-8" standalone="no"?>
<svg width="30px" height="32px" viewBox="0 0 30 32" version="1.1" xmlns="http://www.w3.org/2000/svg" xmlns:xlink="http://www.w3.org/1999/xlink">
    <!-- Generator: Sketch 3.7 (28169) - http://www.bohemiancoding.com/sketch -->
    <title>doors_open</title>
    <desc>Created with Sketch.</desc>
    <defs></defs>
    <g id="Page-1" stroke="none" stroke-width="1" fill="none" fill-rule="evenodd">
        <g id="car-icons" transform="translate(-505.000000, -82.000000)" stroke="#FFFFFF" stroke-width="2">
            <g id="doors_open" transform="translate(506.000000, 83.000000)">
                <path d="M22,27 C22,28.656 20.656,30 19,30 L9,30 C7.344,30 6,28.656 6,27 L6,3 C6,1.344 7.344,0 9,0 L19,0 C20.656,0 22,1.344 22,3 L22,27 L22,27 Z" id="Shape"></path>
                <path d="M22,19 C22,20.656 20.656,22 19,22 L9,22 C7.344,22 6,20.656 6,19 L6,11 C6,9.344 7.344,8 9,8 L19,8 C20.656,8 22,9.344 22,11 L22,19 L22,19 Z" id="Shape"></path>
                <path d="M6,11 L0,15" id="Shape"></path>
                <path d="M22,11 L28,15" id="Shape"></path>
                <path d="M6,19 L0,23" id="Shape"></path>
                <path d="M22,19 L28,23" id="Shape"></path>
            </g>
        </g>
    </g>
</svg>