<?xml version="1.0" encoding="utf-8"?>
<!-- Generator: Adobe Illustrator 16.0.0, SVG Export Plug-In . SVG Version: 6.00 Build 0)  -->
<!DOCTYPE svg PUBLIC "-//W3C//DTD SVG 1.1//EN" "http://www.w3.org/Graphics/SVG/1.1/DTD/svg11.dtd">
<svg version="1.1" id="Layer_1" xmlns="http://www.w3.org/2000/svg" xmlns:xlink="http://www.w3.org/1999/xlink" x="0px" y="0px"
	 width="80.246px" height="78.763px" viewBox="0 0 80.246 78.763" enable-background="new 0 0 80.246 78.763" xml:space="preserve">
<path fill-rule="evenodd" clip-rule="evenodd" fill="#FFFFFF" d="M54.863,2.581c-0.135-1.077,0.1-2.132,1.182-2.463
	C57.816-0.423,58.388,1,58.773,2.275c1.348,4.448,2.604,8.923,3.9,13.386c5.475,18.807,10.953,37.612,16.426,56.42
	c0.371,1.275,0.754,2.55,1.049,3.843c0.291,1.272-0.041,2.413-1.398,2.774c-1.145,0.306-1.859-0.532-2.279-1.496
	c-0.33-0.758-0.535-1.571-0.768-2.368C68.947,51.559,62.191,28.283,55.445,5.006C55.212,4.209,55.06,3.39,54.863,2.581z"/>
<path fill-rule="evenodd" clip-rule="evenodd" fill="#FFFFFF" d="M41.25,73.143c-0.137,1.699,0.32,4.053-2,3.961
	c-3.166-0.126-1.784-2.987-1.95-4.718c-0.146-1.527-0.544-3.979,1.8-3.879C42.068,68.634,40.933,71.445,41.25,73.143z"/>
<path fill-rule="evenodd" clip-rule="evenodd" fill="#FFFFFF" d="M41.255,39.579c-0.295,1.605,0.742,4.193-1.927,4.359
	c-2.918,0.183-2.01-2.487-2.035-4.103c-0.026-1.677-0.794-4.302,1.747-4.467C41.662,35.199,41.078,37.799,41.255,39.579z"/>
<path fill-rule="evenodd" clip-rule="evenodd" fill="#FFFFFF" d="M37.146,23.24c0.471-1.715-0.821-4.428,2.104-4.332
	c2.7,0.089,1.897,2.658,1.94,4.335c0.045,1.728,0.49,4.301-2.071,4.236C36.445,27.413,37.619,24.7,37.146,23.24z"/>
<path fill-rule="evenodd" clip-rule="evenodd" fill="#FFFFFF" d="M37.205,6.124c0.199-1.681-0.34-4.125,2.037-3.874
	c2.812,0.296,1.869,3.042,1.951,4.882c0.068,1.587,0.352,3.924-2.068,3.696C36.018,10.537,37.763,7.683,37.205,6.124z"/>
<path fill-rule="evenodd" clip-rule="evenodd" fill="#FFFFFF" d="M37.2,56.07c0.357-1.574-0.688-4.286,2.187-4.032
	c2.515,0.223,1.779,2.777,1.802,4.467c0.025,1.716,0.461,4.312-2.192,4.087C36.472,60.377,37.512,57.755,37.2,56.07z"/>
<path fill-rule="evenodd" clip-rule="evenodd" fill="#FFFFFF" d="M25.383,2.581c0.135-1.077-0.101-2.132-1.183-2.463
	C22.43-0.423,21.858,1,21.472,2.275c-1.347,4.448-2.603,8.923-3.9,13.386C12.097,34.468,6.62,53.273,1.147,72.081
	c-0.371,1.275-0.754,2.55-1.05,3.843c-0.291,1.272,0.041,2.413,1.398,2.774c1.145,0.306,1.859-0.532,2.28-1.496
	c0.33-0.758,0.535-1.571,0.767-2.368c6.757-23.275,13.512-46.551,20.259-69.828C25.033,4.209,25.186,3.39,25.383,2.581z"/>
</svg>
