<?xml version="1.0" encoding="utf-8"?>
<!-- Generator: Adobe Illustrator 16.0.0, SVG Export Plug-In . SVG Version: 6.00 Build 0)  -->
<!DOCTYPE svg PUBLIC "-//W3C//DTD SVG 1.1//EN" "http://www.w3.org/Graphics/SVG/1.1/DTD/svg11.dtd">
<svg version="1.1" id="Layer_1" xmlns="http://www.w3.org/2000/svg" xmlns:xlink="http://www.w3.org/1999/xlink" x="0px" y="0px"
	 width="78.382px" height="77.364px" viewBox="0 0 78.382 77.364" enable-background="new 0 0 78.382 77.364" xml:space="preserve">
<g>
	<path fill-rule="evenodd" clip-rule="evenodd" fill="#FFFFFF" d="M78.378,27.535c-0.907,21.574-10.362,37.767-30.005,47.583
		c-6.271,3.135-12.34,2.887-18.685-0.111C3.524,62.64-7.849,28.405,5.83,2.928c1.504-2.802,2.51-3.961,5.927-1.744
		c8.125,5.271,16.723,5.031,24.924-0.089c2.2-1.374,3.439-1.359,5.646,0.069c8.021,5.193,16.48,5.182,24.41,0.027
		c3.422-2.224,4.508-1.157,5.937,1.715C76.528,10.661,78.485,18.82,78.378,27.535z M39.31,22.377
		c-10.318,0-20.637,0.081-30.953-0.05c-3.022-0.039-4.467,0.657-4.626,4.061c-0.875,18.654,10.72,37.62,27.816,45.517
		c5.235,2.419,10.098,2.35,15.316-0.026c17.205-7.833,28.723-26.541,27.931-45.398c-0.139-3.308-1.411-4.202-4.532-4.157
		C59.946,22.469,49.627,22.377,39.31,22.377z M38.917,18.685c8.492,0,16.983,0,25.476,0c10.829,0,11.023-0.365,6.786-10.567
		c-1.128-2.714-1.995-3.91-5.347-2.255C58.071,9.696,50.015,9.514,42.32,5.434c-2.202-1.167-3.742-1.093-5.894,0.033
		c-6.821,3.566-14.019,3.94-21.302,1.524c-6.779-2.249-6.759-2.314-9.003,4.721c-0.253,0.792-0.487,1.59-0.748,2.379
		c-1.097,3.313-0.288,4.751,3.574,4.665C18.934,18.535,28.928,18.682,38.917,18.685z"/>
</g>
<path fill-rule="evenodd" clip-rule="evenodd" fill="#FFFFFF" d="M37.129,37.381c0.471-1.715-0.821-4.428,2.104-4.332
	c2.7,0.089,1.897,2.658,1.94,4.335c0.004,0.162,0.011,15.851,0.02,16.025c0.082,1.682,0.229,3.79-2.091,3.731
	c-2.402-0.06-1.701-2.253-1.875-3.757C37.208,53.212,37.177,37.53,37.129,37.381z"/>
<path fill-rule="evenodd" clip-rule="evenodd" fill="#FFFFFF" d="M39.795,34.783c-1.169,1.998-2.676,3.932-5.05,4.831
	c-0.847,0.321-1.736-0.724-1.379-1.504c1.397-3.053,2.49-3.686,4.923-4.996C39.096,32.68,39.722,33.628,39.795,34.783z"/>
<path fill-rule="evenodd" clip-rule="evenodd" fill="#FFFFFF" d="M43.508,57.921c-2.785,0.303-6.234,0.273-8.986-0.154
	c-0.895-0.139-0.731-1.784,0.088-2.039c2.396-0.747,6.52-0.844,9.014-0.051C44.496,55.954,45.015,57.724,43.508,57.921z"/>
</svg>
