<?xml version="1.0" encoding="utf-8"?>
<!-- Generator: Adobe Illustrator 16.0.0, SVG Export Plug-In . SVG Version: 6.00 Build 0)  -->
<!DOCTYPE svg PUBLIC "-//W3C//DTD SVG 1.1//EN" "http://www.w3.org/Graphics/SVG/1.1/DTD/svg11.dtd">
<svg version="1.1" id="Layer_1" xmlns="http://www.w3.org/2000/svg" xmlns:xlink="http://www.w3.org/1999/xlink" x="0px" y="0px"
	 width="96.976px" height="78.762px" viewBox="0 0 96.976 78.762" enable-background="new 0 0 96.976 78.762" xml:space="preserve">
<g>
	<path fill-rule="evenodd" clip-rule="evenodd" fill="#FFFFFF" d="M19.465,25.445c2.389,0.181,4.797,0.313,6.835,1.474
		c3.087,1.758,3.913,0.18,4.651-2.454c1.885-6.715,3.89-13.397,5.943-20.062c0.54-1.75,0.49-4.928,3.091-4.185
		c2.995,0.857,1.076,3.67,0.562,5.519c-2.05,7.358-4.236,14.681-6.495,21.978c-0.688,2.22-0.475,3.89,0.898,5.938
		c7.294,10.881,3.761,23.917-8.126,29.124c-3.475,1.522-3.888,4.128-4.744,6.903c-0.734,2.381-1.38,4.789-2.13,7.164
		c-0.373,1.182-1.115,2.214-2.514,1.813c-1.37-0.392-1.571-1.636-1.253-2.86c0.583-2.25,1.079-4.549,1.944-6.692
		c1.294-3.206,0.693-4.52-3.006-5.267C6.273,62.052,0.283,54.541,0.01,45.785c-0.279-8.933,5.156-16.728,13.603-19.3
		C15.495,25.912,17.511,25.78,19.465,25.445z M3.997,45.089c0.028,8.403,6.822,15.316,15.165,15.43
		c8.419,0.114,15.678-7.114,15.641-15.575c-0.037-8.33-6.928-15.222-15.292-15.294C10.77,29.574,3.968,36.343,3.997,45.089z"/>
	<path fill-rule="evenodd" clip-rule="evenodd" fill="#FFFFFF" d="M71.593,2.581c-0.135-1.077,0.101-2.132,1.183-2.463
		C74.546-0.423,75.118,1,75.504,2.275c1.347,4.448,2.603,8.923,3.9,13.386c5.475,18.807,10.952,37.612,16.425,56.42
		c0.371,1.275,0.754,2.55,1.05,3.843c0.291,1.272-0.041,2.413-1.398,2.774c-1.145,0.306-1.859-0.532-2.28-1.496
		c-0.33-0.758-0.535-1.571-0.767-2.368C85.677,51.559,78.922,28.283,72.175,5.006C71.943,4.209,71.79,3.39,71.593,2.581z"/>
	<path fill-rule="evenodd" clip-rule="evenodd" fill="#FFFFFF" d="M57.98,73.143c-0.138,1.699,0.319,4.053-2,3.961
		c-3.166-0.126-1.784-2.987-1.95-4.718c-0.146-1.527-0.544-3.979,1.8-3.879C58.798,68.634,57.664,71.445,57.98,73.143z"/>
	<path fill-rule="evenodd" clip-rule="evenodd" fill="#FFFFFF" d="M57.985,39.579c-0.295,1.605,0.743,4.193-1.927,4.359
		c-2.918,0.183-2.01-2.487-2.035-4.103c-0.026-1.677-0.794-4.302,1.747-4.467C58.393,35.199,57.809,37.799,57.985,39.579z"/>
	<path fill-rule="evenodd" clip-rule="evenodd" fill="#FFFFFF" d="M53.877,23.24c0.471-1.715-0.821-4.428,2.104-4.332
		c2.7,0.089,1.897,2.658,1.94,4.335c0.044,1.728,0.489,4.301-2.071,4.236C53.176,27.413,54.35,24.7,53.877,23.24z"/>
	<path fill-rule="evenodd" clip-rule="evenodd" fill="#FFFFFF" d="M53.936,6.124c0.199-1.681-0.34-4.125,2.037-3.874
		c2.812,0.296,1.869,3.042,1.95,4.882c0.069,1.587,0.352,3.924-2.067,3.696C52.748,10.537,54.493,7.683,53.936,6.124z"/>
	<path fill-rule="evenodd" clip-rule="evenodd" fill="#FFFFFF" d="M53.931,56.07c0.357-1.574-0.688-4.286,2.187-4.032
		c2.516,0.223,1.779,2.777,1.803,4.467c0.024,1.716,0.46,4.312-2.192,4.087C53.202,60.377,54.242,57.755,53.931,56.07z"/>
	<path fill-rule="evenodd" clip-rule="evenodd" fill="#FFFFFF" d="M23.923,39.058c0.142,0.974-0.145,1.549-0.903,1.699
		c-5.577,1.102-1.893,2.374-0.097,3.685c2.23,1.627,3.22,4.264,1.038,5.836c-1.7,1.224-3.077,6.627-6.868,2.07
		c-0.565-0.679-1.81-0.759-2.679-1.229c-0.734-0.396-1.433-0.975-1.046-1.968c0.361-0.929,1.145-1.1,2.04-0.854
		c0.875,0.239,1.936,1.177,2.479-0.258c0.525-1.385-0.517-2.014-1.625-2.619c-2.892-1.579-3.589-3.931-1.658-6.622
		c1.875-2.612,6.289-2.867,8.541-0.71C23.486,38.417,23.744,38.833,23.923,39.058z"/>
</g>
</svg>
