<?xml version="1.0" encoding="utf-8"?>
<!-- Generator: Adobe Illustrator 16.0.0, SVG Export Plug-In . SVG Version: 6.00 Build 0)  -->
<!DOCTYPE svg PUBLIC "-//W3C//DTD SVG 1.1//EN" "http://www.w3.org/Graphics/SVG/1.1/DTD/svg11.dtd">
<svg version="1.1" id="Layer_1" xmlns="http://www.w3.org/2000/svg" xmlns:xlink="http://www.w3.org/1999/xlink" x="0px" y="0px"
	 width="78.869px" height="83.13px" viewBox="0 0 78.869 83.13" enable-background="new 0 0 78.869 83.13" xml:space="preserve">
<g>
	<path fill-rule="evenodd" clip-rule="evenodd" fill="#FFFFFF" d="M56.235,36.476c-5.533,4.541-9.942,8.224-14.435,11.801
		c-1.163,0.926-2.561,2.973-4.102,0.802c-1.223-1.723,0.78-2.62,1.824-3.511c3.803-3.242,7.418-6.813,11.606-9.47
		c5.753-3.649,5.711-8.588,4.538-14.949c-3.082,2.478-5.688,4.7-8.438,6.727c-1.295,0.954-2.713,3.487-4.485,1.237
		c-1.464-1.856,0.942-2.826,2.075-3.819c2.754-2.415,5.547-4.806,8.49-6.981c2.244-1.659,3.022-3.646,2.979-6.395
		c-0.089-5.626,0.026-5.651-4.852-3.059c-1.11,0.59-2.211,1.099-3.097-0.072c-0.756-1-0.015-1.863,0.749-2.573
		c0.366-0.341,0.76-0.65,1.13-0.985c7.823-7.065,8.895-7.026,16.334,0.467C67.511,6.66,68.81,7.655,67.577,9
		c-1.205,1.316-2.419,0.146-3.479-0.652c-1.06-0.798-2.105-1.614-3.187-2.445c-2.281,6.198-1.49,9.486,3.115,13.299
		c2.695,2.23,5.4,4.449,8.064,6.718c0.978,0.832,2.521,1.765,1.414,3.225c-1.326,1.75-2.669,0.316-3.801-0.591
		c-2.945-2.36-5.846-4.778-9.39-7.687c-0.797,6.546-1.272,11.685,4.852,15.375c4.233,2.551,7.803,6.218,11.608,9.457
		c1.054,0.896,2.983,1.833,1.627,3.546c-1.338,1.689-2.702,0.152-3.813-0.751c-4.513-3.666-8.982-7.384-13.468-11.082
		c-2.01,1.369-1.166,3.191-1.176,4.676c-0.082,11.83-0.045,23.661-0.049,35.492c0,1.166,0.011,2.335-0.066,3.497
		c-0.071,1.066-0.519,2.017-1.717,2.053c-1.253,0.038-1.66-0.996-1.761-2.015c-0.131-1.322-0.111-2.661-0.112-3.993
		c-0.007-11.331-0.005-22.662-0.005-33.993C56.235,41.369,56.235,39.61,56.235,36.476z"/>
	<path fill-rule="evenodd" clip-rule="evenodd" fill="#FFFFFF" d="M13.959,53.965c-4.108,3.346-7.187,5.865-10.28,8.365
		c-0.927,0.749-2.008,1.547-3.076,0.446c-1.39-1.433-0.071-2.432,0.9-3.274c2.262-1.962,4.41-4.16,6.955-5.67
		c5.667-3.362,6.457-8.224,5.105-14.106c-2.2-0.241-3.023,1.815-4.547,2.611c-0.909,0.475-1.808,1.065-2.68,0.1
		c-0.824-0.913-0.544-1.925,0.279-2.636c2.519-2.173,5.088-4.29,7.675-6.381c1.05-0.849,2.199-0.701,3.204,0.116
		c2.452,1.994,4.879,4.021,7.296,6.06c0.803,0.677,1.449,1.548,0.724,2.573c-0.9,1.271-1.984,0.741-3.047,0.081
		c-1.349-0.837-2.213-2.498-4.396-2.523c-0.931,5.486-1.004,10.389,4.632,13.749c2.542,1.516,4.695,3.707,6.939,5.689
		c1.021,0.902,2.966,1.828,1.371,3.538c-1.489,1.598-2.698-0.111-3.796-0.96c-2.106-1.628-4.1-3.401-6.195-5.042
		c-0.729-0.57-1.401-1.654-2.523-1.136c-1.127,0.52-0.764,1.736-0.77,2.662c-0.045,6.823,0.02,13.648-0.071,20.472
		c-0.022,1.665,0.664,4.397-1.94,4.3c-2.521-0.095-1.706-2.804-1.724-4.473C13.915,70.749,13.959,62.971,13.959,53.965z"/>
</g>
</svg>
