<?xml version="1.0" encoding="UTF-8" standalone="no"?>
<svg width="148px" height="125px" viewBox="0 0 148 125" version="1.1" xmlns="http://www.w3.org/2000/svg" xmlns:xlink="http://www.w3.org/1999/xlink">
    <!-- Generator: Sketch 3.7.1 (28215) - http://www.bohemiancoding.com/sketch -->
    <title>Oval 8</title>
    <desc>Created with Sketch.</desc>
    <defs></defs>
    <g id="Page-1" stroke="none" stroke-width="1" fill="none" fill-rule="evenodd">
        <g id="Artboard" transform="translate(-313.000000, -239.000000)" fill="#4A4A4A">
            <path d="M355.62892,318.468211 C360.157676,322.323483 363.033975,328.090023 363.033975,334.533898 C363.033975,346.141239 353.701319,355.550847 342.188905,355.550847 C330.67649,355.550847 321.343834,346.141239 321.343834,334.533898 C321.343834,322.926558 330.67649,313.516949 342.188905,313.516949 C345.069608,313.516949 347.813831,314.106113 350.309505,315.171449 L336.565112,335.548349 C335.601533,336.976913 335.978889,338.920887 337.410523,339.886536 C338.839243,340.85022 340.78479,340.475539 341.749516,339.045274 L355.62892,318.468211 Z M429.675586,305.188597 C430.384567,305.136615 431.100574,305.110169 431.822707,305.110169 C447.940088,305.110169 461.005806,318.283622 461.005806,334.533898 C461.005806,350.784175 447.940088,363.957627 431.822707,363.957627 C415.705327,363.957627 402.639609,350.784175 402.639609,334.533898 C402.639609,321.191004 411.448309,309.922457 423.522289,306.317385 L421.480314,296.710647 C421.12164,295.023219 422.203621,293.363502 423.88931,293.005198 C425.578437,292.646163 427.240699,293.733354 427.59718,295.410467 L429.675586,305.188597 Z M431.446545,313.520302 C431.571666,313.51807 431.697057,313.516949 431.822707,313.516949 C443.335122,313.516949 452.667778,322.926558 452.667778,334.533898 C452.667778,346.141239 443.335122,355.550847 431.822707,355.550847 C420.310293,355.550847 410.977637,346.141239 410.977637,334.533898 C410.977637,325.231882 416.971323,317.34131 425.277277,314.573953 L429.794713,335.826821 C430.151195,337.503935 431.813457,338.591125 433.502583,338.23209 C435.188272,337.873786 436.270254,336.214069 435.91158,334.526641 L431.446545,313.520302 Z M392.74521,310.043925 C392.887807,310.584195 392.963763,311.151278 392.963763,311.735785 L392.963763,311.791867 C392.988675,312.194674 392.996032,312.567042 392.996032,312.895799 C392.996032,312.955158 392.985061,313.011885 392.963763,313.066084 L392.963763,340.518453 C392.963763,344.177679 389.989367,347.144068 386.336897,347.144068 C382.67698,347.144068 379.710031,344.171578 379.710031,340.518453 L379.710031,313.505999 L358.833043,299.480143 C358.833043,299.480143 347.169569,292.332974 355.290003,282.333509 C363.410438,272.334045 374.090175,262.577413 377.215768,260.490945 C380.341361,258.404477 384.89991,259.290747 387.984219,262.306815 C391.068528,265.322882 403.20063,278.06752 405.238897,279.052881 C406.321641,279.576312 407.963615,279.79749 409.265154,279.889831 L422.394675,279.889831 C425.299151,279.889831 427.653693,282.248137 427.653693,285.144068 C427.653693,288.045903 425.300429,290.398305 422.394675,290.398305 L407.898627,290.398305 C407.711926,290.398305 407.527498,290.388561 407.345822,290.369555 C404.491615,290.399196 400.849514,290.168262 399.136945,288.955098 C396.096894,286.801561 389.008188,278.821264 387.401846,277.775898 C385.795503,276.730531 385.791216,276.16906 383.243223,278.611872 C380.69523,281.054685 374.09144,288.151588 372.784714,289.589577 C371.300033,291.223396 372.428865,292.202266 372.972119,292.723689 C373.515373,293.245111 386.865979,302.691099 389.791985,304.948182 C391.605524,306.347123 392.401841,308.288612 392.74521,310.043925 Z M342.188905,363.957627 C358.306285,363.957627 371.372003,350.784175 371.372003,334.533898 C371.372003,318.283622 358.306285,305.110169 342.188905,305.110169 C326.071524,305.110169 313.005806,318.283622 313.005806,334.533898 C313.005806,350.784175 326.071524,363.957627 342.188905,363.957627 Z M396.88388,262.100484 C402.983742,262.100484 407.928656,257.143637 407.928656,251.029056 C407.928656,244.914475 402.983742,239.957627 396.88388,239.957627 C390.784019,239.957627 385.839104,244.914475 385.839104,251.029056 C385.839104,257.143637 390.784019,262.100484 396.88388,262.100484 Z" id="Oval-8"></path>
        </g>
    </g>
</svg>