<?xml version="1.0" encoding="utf-8"?>
<!-- Generator: Adobe Illustrator 16.0.0, SVG Export Plug-In . SVG Version: 6.00 Build 0)  -->
<!DOCTYPE svg PUBLIC "-//W3C//DTD SVG 1.1//EN" "http://www.w3.org/Graphics/SVG/1.1/DTD/svg11.dtd">
<svg version="1.1" id="Layer_1" xmlns="http://www.w3.org/2000/svg" xmlns:xlink="http://www.w3.org/1999/xlink" x="0px" y="0px"
	 width="96.733px" height="83.834px" viewBox="0 0 96.733 83.834" enable-background="new 0 0 96.733 83.834" xml:space="preserve">
<g>
	<path fill-rule="evenodd" clip-rule="evenodd" fill="#4A4A4A" d="M96.683,41.318c0,8.985-0.049,17.971,0.025,26.956
		c0.027,3.276-0.682,6.008-4.161,7.076c-1.562,0.479-1.871,1.562-2.21,2.93c-0.842,3.392-3.199,4.814-6.624,4.846
		c-3.577,0.032-6.306-1.186-6.981-4.945c-0.354-1.972-1.364-2.41-3.039-2.407c-7.487,0.011-14.976,0.007-22.463-0.001
		c-1.816-0.001-3.112,0.368-3.507,2.589c-0.632,3.549-3.24,4.733-6.6,4.761c-3.587,0.03-6.103-1.296-6.955-5.042
		c-0.175-0.768-0.506-1.941-1.035-2.118c-6.067-2.023-5.07-7.062-5.077-11.638c-0.026-16.138,0.007-32.275-0.021-48.413
		c-0.007-4.006,0.152-7.829,5.153-8.909c0.309-0.067,0.761-0.218,0.85-0.445c3.199-8.185,10.302-6.365,16.597-6.421
		c9.65-0.085,19.303,0.07,28.952-0.064c4.334-0.06,7.902,0.891,9.927,5.118c0.274,0.572,0.671,1.453,1.116,1.523
		c6.911,1.099,6.083,6.307,6.062,11.145C96.659,25.677,96.684,33.498,96.683,41.318z M62.022,47.12
		c9.161,0,18.323-0.096,27.481,0.056c2.959,0.049,4.117-0.756,4.058-3.903c-0.177-9.324-0.191-18.656-0.005-27.98
		c0.081-4.053-1.691-5.119-5.426-5.093c-17.155,0.12-34.312,0.137-51.467-0.013c-3.874-0.033-5.345,1.227-5.258,5.174
		c0.2,9.156,0.225,18.324-0.018,27.479c-0.098,3.687,1.328,4.425,4.651,4.349C44.697,46.989,53.361,47.121,62.022,47.12z
		 M62.861,50.298c-9.143,0-18.287,0.101-27.428-0.057c-3.046-0.053-4.131,0.977-4.011,4.004c0.185,4.647,0.125,9.309,0.029,13.962
		c-0.062,2.995,1.177,4.03,4.192,4.013c17.785-0.105,35.571-0.112,53.356,0.01c3.221,0.022,4.59-1.051,4.518-4.273
		c-0.102-4.486-0.194-8.985,0.037-13.462c0.169-3.28-1.005-4.327-4.264-4.259C80.485,50.418,71.672,50.298,62.861,50.298z
		 M61.748,6.642c0,0.007,0,0.013,0,0.019c2.496,0,4.993,0.031,7.488-0.015c1.039-0.019,2.032-0.312,2.089-1.61
		c0.057-1.312-0.861-1.689-1.946-1.694C64.22,3.318,59.061,3.317,53.901,3.336c-1.032,0.004-2.021,0.186-2.061,1.561
		c-0.039,1.332,0.847,1.713,1.921,1.73C56.424,6.672,59.086,6.642,61.748,6.642z M86.591,6.643
		c-3.485-4.326-6.989-3.153-10.169-3.258c-0.921-0.029-1.555,0.46-1.592,1.487c-0.047,1.315,0.799,1.741,1.891,1.757
		C79.637,6.668,82.554,6.643,86.591,6.643z M38.474,6.363c3.487,0.196,6.634,1.232,9.673-0.598c0.627-0.377,0.493-1.922-0.393-2.04
		C44.593,3.303,41.131,2.065,38.474,6.363z M83.424,75.962c-1.165,0.521-3.461-0.858-3.291,1.698c0.117,1.78,1.829,2.191,3.41,2.164
		c1.55-0.027,3.271-0.317,3.282-2.239C86.84,75.039,84.609,76.481,83.424,75.962z M40.979,75.986
		c-1.179,0.417-3.373-0.765-3.2,1.767c0.132,1.916,1.866,2.066,3.365,2.059c1.554-0.009,3.264-0.438,3.238-2.262
		C44.35,75.229,42.218,76.385,40.979,75.986z"/>
	<path fill-rule="evenodd" clip-rule="evenodd" fill="#4A4A4A" d="M11.653,64.648c-0.005,5.319,0.013,10.64-0.018,15.959
		c-0.008,1.278,0.279,3.143-1.445,3.224c-2.282,0.108-1.725-2.036-1.732-3.38c-0.06-9.808-0.104-19.617,0.001-29.424
		c0.03-2.893-0.033-5.389-3.768-5.599c-0.16-0.009-0.322-0.088-0.472-0.157c-3.511-1.626-5.332-11.262-3.49-18.917
		c0.982-4.085,4.165-4.752,7.734-4.695c1.495,0.023,2.991,0.019,4.487,0.019c4.672,0.003,7.13,2.171,7.002,7.009
		c-0.074,2.824-0.128,5.658,0.021,8.477c0.25,4.709-0.812,8.337-6.38,8.718c-2.301,0.157-1.834,1.889-1.933,3.308
		c-0.012,0.166-0.004,0.333-0.004,0.499C11.658,54.673,11.658,59.661,11.653,64.648z M16.688,34.054
		c0.001-9.512,0.006-9.409-8.681-9.033c-2.93,0.127-4.282,1.188-4.216,4.135c0.071,3.149,0.007,6.301,0.03,9.45
		c0.01,1.351,0.179,2.626,1.562,3.397c5.364,2.987,11.292-0.388,11.304-6.457C16.688,35.049,16.688,34.552,16.688,34.054z"/>
	<path fill-rule="evenodd" clip-rule="evenodd" fill="#4A4A4A" d="M84.123,22.335c-0.531,0.648-1.208,1.584-1.996,2.415
		c-2.511,2.646-5.052,5.266-7.606,7.87c-0.709,0.723-1.587,1.416-2.598,0.687c-1.021-0.736-0.8-1.819-0.062-2.6
		c3.191-3.37,6.424-6.702,9.715-9.975c0.361-0.358,1.241-0.436,1.795-0.298C84.016,20.596,84.365,21.238,84.123,22.335z"/>
	<path fill-rule="evenodd" clip-rule="evenodd" fill="#4A4A4A" d="M85.055,29.881c-1.169,1.998-2.676,3.932-5.05,4.831
		c-0.847,0.321-1.654-0.691-1.379-1.504c0.815-2.407,2.557-4.124,4.923-4.996C84.408,27.895,84.981,28.726,85.055,29.881z"/>
	<path fill-rule="evenodd" clip-rule="evenodd" fill="#4A4A4A" d="M83.039,67.35c-3.357-0.362-5.47-2.189-5.494-5.759
		c-0.026-3.837,2.243-5.936,5.936-5.896c3.491,0.037,5.66,2.259,5.661,5.725C89.143,65.107,86.984,67.205,83.039,67.35z
		 M83.484,64.029c1.483-0.244,2.296-1.128,2.208-2.655c-0.091-1.566-1.058-2.35-2.587-2.246c-1.533,0.104-2.406,1.057-2.28,2.577
		C80.948,63.194,81.941,63.966,83.484,64.029z"/>
	<path fill-rule="evenodd" clip-rule="evenodd" fill="#4A4A4A" d="M41.019,67.341c-3.3-0.412-5.407-2.277-5.394-5.83
		c0.015-3.836,2.34-5.896,6.029-5.815c3.502,0.078,5.656,2.385,5.62,5.798C47.235,65.141,45.022,67.258,41.019,67.341z
		 M43.813,61.501c-0.13-1.513-0.899-2.439-2.472-2.392c-1.521,0.046-2.486,0.981-2.452,2.455c0.034,1.444,1,2.42,2.511,2.438
		C42.98,64.021,43.654,62.965,43.813,61.501z"/>
</g>
</svg>
