<?xml version="1.0" encoding="utf-8"?>
<!-- Generator: Adobe Illustrator 16.0.0, SVG Export Plug-In . SVG Version: 6.00 Build 0)  -->
<!DOCTYPE svg PUBLIC "-//W3C//DTD SVG 1.1//EN" "http://www.w3.org/Graphics/SVG/1.1/DTD/svg11.dtd">
<svg version="1.1" id="Layer_1" xmlns="http://www.w3.org/2000/svg" xmlns:xlink="http://www.w3.org/1999/xlink" x="0px" y="0px"
	 width="78.533px" height="71.223px" viewBox="0 0 78.533 71.223" enable-background="new 0 0 78.533 71.223" xml:space="preserve">
<g>
	<path fill-rule="evenodd" clip-rule="evenodd" fill="#4A4A4A" d="M39.48,0.104c6.16,0,12.332,0.237,18.476-0.086
		c3.879-0.204,5.716,1.4,6.979,4.825c2.594,7.032,4.714,14.198,6.687,21.416c0.619,2.264,1.291,4.255,3.793,5.42
		c2.456,1.145,3.151,3.643,3.117,6.347c-0.07,5.493-0.059,10.987-0.005,16.481c0.022,2.293-0.486,4.373-2.351,5.772
		c-1.508,1.131-1.831,2.534-2.015,4.276c-0.45,4.257-2.857,6.466-7.26,6.647c-4.461,0.184-8.211-0.835-8.964-5.802
		c-0.434-2.864-1.642-3.409-4.2-3.377c-9.321,0.119-18.646,0.139-27.968-0.007c-2.854-0.044-3.959,0.717-4.398,3.756
		c-0.691,4.781-4.504,5.567-8.696,5.419c-4.039-0.143-6.628-1.838-7.266-6.016c-0.172-1.127-0.051-2.646-0.727-3.295
		c-8.294-7.969-2.829-17.865-3.854-26.826c-0.063-0.549,0.405-1.454,0.888-1.724c6.977-3.904,6.508-11.493,8.53-17.687
		C15.299,0.171,15.093,0.104,30.99,0.104C33.82,0.104,36.65,0.104,39.48,0.104z M39.537,33.927c-10.142,0-20.284,0.084-30.424-0.041
		c-4.09-0.051-5.691,1.694-5.524,5.707c0.18,4.315,0.27,8.661-0.021,12.965c-0.318,4.693,1.982,6.269,6.199,6.229
		c4.149-0.038,8.3-0.029,12.449-0.027c15.624,0.009,31.247-0.023,46.871,0.063c4.642,0.025,6.641-1.898,6.305-6.65
		c-0.292-4.137-0.237-8.319-0.014-12.465c0.236-4.381-1.728-5.897-5.917-5.839C59.488,34.008,49.512,33.914,39.537,33.927z
		 M53.444,11.063c3.214,0.213,6.846,2.279,5.924,5.857c-1.392,5.393,2.263,7.918,4.188,11.551c0.997,1.88,2.478,2.231,4.161,1.631
		c1.894-0.675,0.885-2.334,0.562-3.419c-1.995-6.694-4.147-13.342-6.227-20.011c-0.724-2.32-2.002-3.47-4.687-3.44
		c-11.993,0.133-23.988,0.089-35.982,0.03c-2.078-0.011-3.416,0.564-4.21,2.64c-2.679,7.007-4.705,14.209-6.707,21.424
		c-0.753,2.714,0.855,3.693,2.847,2.821c3.079-1.348,3.623-5.362,6.586-7.18c1.489-0.914-0.104-2.393-0.311-3.611
		c-0.525-3.088,0.287-5.639,3.048-7.312c2.337-1.415,4.781-1.404,7.091,0.044c2.749,1.724,3.794,4.454,2.725,7.349
		c-0.932,2.524-0.262,3.81,1.591,5.423c1.694,1.477,2.781,3.633,4.345,5.293c0.374,0.396,1.881,0.349,2.349-0.072
		c2.322-2.085,3.382-5.219,6.085-7.113c1.634-1.145-0.268-2.708-0.408-4.101C45.981,14.562,48.677,11.193,53.444,11.063z
		 M18.547,30.043c1.653,0.145,2.767,0.311,3.882,0.324c2.803,0.035,5.605,0.029,8.408-0.022c0.755-0.015,1.744,0.23,2.123-0.724
		c0.361-0.911-0.405-1.521-0.91-2.134C28.672,23.394,22.284,24.336,18.547,30.043z M45.475,30.233
		c5.243,0.12,9.873,0.478,14.728-0.237C56.156,23.159,49.773,23.125,45.475,30.233z M13.422,67.983
		c2.57,0.051,4.732-0.669,4.891-3.634c0.185-3.471-2.699-2.31-4.266-2.173c-1.879,0.163-5.146-1.828-5.355,2.044
		C8.533,67.136,10.804,68.016,13.422,67.983z M65.61,61.875c-1.264,0.966-4.199-1.169-4.298,2.288
		c-0.087,3.029,1.964,3.804,4.567,3.82c2.558,0.018,4.775-0.62,4.755-3.639C70.609,60.652,67.517,62.671,65.61,61.875z
		 M29.481,18.106c0.062-2.088-1.003-3.471-3.027-3.716c-2.103-0.256-3.471,1.044-3.678,3.073c-0.188,1.845,0.962,3.152,2.762,3.477
		C27.647,21.321,28.892,20.145,29.481,18.106z M52.756,14.245c-1.75,0.51-3.251,1.523-3.057,3.662
		c0.185,2.044,1.566,3.271,3.684,3.067c1.84-0.176,3.006-1.408,2.989-3.276C56.353,15.563,54.943,14.555,52.756,14.245z"/>
	<path fill-rule="evenodd" clip-rule="evenodd" fill="#4A4A4A" d="M64.633,38.092c3.929,0,6.958,3.055,6.883,6.94
		c-0.075,3.83-3.337,7.041-7.141,6.721c-4.016-0.338-6.399-2.696-6.688-6.729C57.42,41.303,60.792,38.093,64.633,38.092z
		 M64.607,41.31c-2.054,0.26-3.357,1.393-3.399,3.48c-0.042,2.071,1.054,3.445,3.255,3.491c2.367,0.05,3.795-1.278,3.72-3.578
		C68.116,42.676,66.662,41.559,64.607,41.31z"/>
	<path fill-rule="evenodd" clip-rule="evenodd" fill="#4A4A4A" d="M21.883,44.773c0.065,3.798-3.092,7.03-6.872,7.034
		c-3.8,0.005-6.991-3.187-6.815-7.032c0.188-4.104,2.48-6.399,6.564-6.655C18.681,37.874,21.817,40.902,21.883,44.773z
		 M18.509,44.954c-0.09-2.124-1.294-3.466-3.306-3.551c-2.276-0.097-3.705,1.271-3.677,3.637c0.026,2.187,1.436,3.265,3.508,3.254
		C17.126,48.282,18.356,47.13,18.509,44.954z"/>
</g>
</svg>
