<?xml version="1.0" encoding="UTF-8" standalone="no"?>
<svg width="41px" height="32px" viewBox="0 0 41 32" version="1.1" xmlns="http://www.w3.org/2000/svg" xmlns:xlink="http://www.w3.org/1999/xlink">
    <!-- Generator: Sketch 3.7.1 (28215) - http://www.bohemiancoding.com/sketch -->
    <title>feed</title>
    <desc>Created with Sketch.</desc>
    <defs></defs>
    <g id="Page-1" stroke="none" stroke-width="1" fill="none" fill-rule="evenodd">
        <g id="feed" transform="translate(20.500000, 11.500000) rotate(-45.000000) translate(-20.500000, -11.500000) translate(5.000000, -4.000000)" fill="#4A4A4A">
            <path d="M30,29 C29.448,29 29,28.553 29,28 L29,25.5 C29,12.542 18.458,2 5.5,2 L3,2 C2.448,2 2,1.553 2,1 C2,0.447 2.448,-1.13686838e-13 3,-1.13686838e-13 L5.5,-1.13686838e-13 C19.56,-1.13686838e-13 31,11.439 31,25.5 L31,28 C31,28.553 30.552,29 30,29 L30,29 Z M11,25.5 C11,28.532 8.533,31 5.5,31 C2.467,31 -1.70530257e-13,28.532 -1.70530257e-13,25.5 C-1.70530257e-13,22.468 2.467,20 5.5,20 C8.533,20 11,22.468 11,25.5 L11,25.5 Z M2,25.5 C2,27.43 3.57,29 5.5,29 C7.43,29 9,27.43 9,25.5 C9,23.57 7.43,22 5.5,22 C3.57,22 2,23.57 2,25.5 L2,25.5 Z M3,12 C2.448,12 2,11.553 2,11 C2,10.447 2.448,10 3,10 L5.5,10 C14.047,10 21,16.953 21,25.5 L21,28 C21,28.553 20.552,29 20,29 C19.448,29 19,28.553 19,28 L19,25.5 C19,18.056 12.944,12 5.5,12 L3,12 L3,12 Z" id="Shape"></path>
        </g>
    </g>
</svg>