<?xml version="1.0" encoding="UTF-8" standalone="no"?>
<svg width="32px" height="32px" viewBox="0 0 32 32" version="1.1" xmlns="http://www.w3.org/2000/svg" xmlns:xlink="http://www.w3.org/1999/xlink">
    <!-- Generator: Sketch 3.7.1 (28215) - http://www.bohemiancoding.com/sketch -->
    <title>gas</title>
    <desc>Created with Sketch.</desc>
    <defs></defs>
    <g id="Page-1" stroke="none" stroke-width="1" fill="none" fill-rule="evenodd">
        <g id="car-icons" transform="translate(0.000000, -82.000000)" stroke="#4A4A4A" stroke-width="2">
            <g id="gas" transform="translate(0.000000, 83.000000)">
                <path d="M3,30 L3,3 C3,1.344 4.344,0 6,0 L20,0 C21.656,0 23,1.344 23,3 L23,30" id="Shape"></path>
                <path d="M0,30 L26,30" id="Shape"></path>
                <rect id="Rectangle-path" x="7" y="4" width="12" height="8"></rect>
                <polygon id="Shape" points="31 8 28 8 28 5 29 0 31 0"></polygon>
                <path d="M3,25 L23,25" id="Shape"></path>
                <path d="M6,15 L10,15" id="Shape"></path>
                <path d="M16,15 L20,15" id="Shape"></path>
                <path d="M11,15 L15,15" id="Shape"></path>
                <path d="M10,8 L16,8" id="Shape"></path>
                <path d="M30,8 L30,24 C30,25.104 29.104,26 28,26 C26.896,26 26,25.104 26,24 L26,18 C26,16.896 25.104,16 24,16 L23,16" id="Shape"></path>
            </g>
        </g>
    </g>
</svg>