<?xml version="1.0" encoding="UTF-8" standalone="no"?>
<svg width="21px" height="36px" viewBox="0 0 21 36" version="1.1" xmlns="http://www.w3.org/2000/svg" xmlns:xlink="http://www.w3.org/1999/xlink">
    <!-- Generator: Sketch 3.7 (28169) - http://www.bohemiancoding.com/sketch -->
    <title>meter</title>
    <desc>Created with Sketch.</desc>
    <defs></defs>
    <g id="Page-1" stroke="none" stroke-width="1" fill="none" fill-rule="evenodd">
        <g id="car-icons" transform="translate(-294.000000, -254.000000)" stroke="#144566" stroke-width="2">
            <g id="meter" transform="translate(295.000000, 255.000000)">
                <path d="M7.83075629,28.505212 L10.6117893,28.505212 C10.6117893,28.505212 18.3333333,13.3234223 18.3333333,9.28030303 C18.3333333,4.15493319 14.2292769,0 9.16666667,0 C4.10405646,0 0,4.15493319 0,9.28030303 C0,14.4056729 7.83075629,28.505212 7.83075629,28.505212 Z" id="Oval"></path>
                <path d="M9.16666667,16.0858586 C12.8792475,16.0858586 15.8888889,13.0389076 15.8888889,9.28030303 C15.8888889,5.52169848 12.8792475,2.47474747 9.16666667,2.47474747 C5.45408585,2.47474747 2.44444444,5.52169848 2.44444444,9.28030303 C2.44444444,13.0389076 5.45408585,16.0858586 9.16666667,16.0858586 Z" id="Oval"></path>
                <path d="M12.2222222,9.28030303 C12.2222222,10.9884975 10.8527222,12.3737374 9.16666667,12.3737374 C7.48061111,12.3737374 6.11111111,10.9884975 6.11111111,9.28030303" id="Shape"></path>
                <path d="M9.14814815,28.3333333 L9.14814817,34.8737375" id="Shape"></path>
                <path d="M2.44444444,9.28030303 L15.8888889,9.28030303" id="Shape"></path>
            </g>
        </g>
    </g>
</svg>