<?xml version="1.0" encoding="utf-8"?>
<!-- Generator: Adobe Illustrator 16.0.0, SVG Export Plug-In . SVG Version: 6.00 Build 0)  -->
<!DOCTYPE svg PUBLIC "-//W3C//DTD SVG 1.1//EN" "http://www.w3.org/Graphics/SVG/1.1/DTD/svg11.dtd">
<svg version="1.1" id="Layer_1" xmlns="http://www.w3.org/2000/svg" xmlns:xlink="http://www.w3.org/1999/xlink" x="0px" y="0px"
	 width="62.042px" height="83.123px" viewBox="0 0 62.042 83.123" enable-background="new 0 0 62.042 83.123" xml:space="preserve">
<g>
	<path fill-rule="evenodd" clip-rule="evenodd" fill="#4A4A4A" d="M0.017,41.397c0-10.319-0.042-20.64,0.014-30.959
		c0.038-7.15,3.24-10.367,10.391-10.395C24.236-0.01,38.052-0.021,51.866,0.05c6.746,0.034,10.1,3.379,10.123,10.218
		c0.072,20.806,0.067,41.611,0.004,62.416c-0.021,7.113-3.346,10.369-10.454,10.396c-13.815,0.052-27.631,0.064-41.445-0.007
		C3.318,83.039,0.075,79.715,0.033,72.856C-0.03,62.37,0.017,51.884,0.017,41.397z M30.729,54.139
		c7.991,0,15.984-0.092,23.973,0.049c2.892,0.051,4.178-0.681,4.144-3.872c-0.142-13.151,0.005-26.305-0.093-39.456
		c-0.041-5.574-2.089-7.596-7.556-7.624C37.712,3.167,24.227,3.166,10.741,3.236c-5.468,0.029-7.488,2.083-7.518,7.621
		C3.154,23.843,3.321,36.831,3.121,49.813c-0.056,3.645,1.304,4.475,4.635,4.39C15.409,54.006,23.071,54.141,30.729,54.139z
		 M31.061,57.397c-7.824,0-15.652,0.154-23.471-0.068c-3.57-0.102-4.676,1.207-4.446,4.62c0.245,3.646,0.032,7.321,0.07,10.983
		c0.046,4.396,2.203,6.929,6.694,6.947c13.983,0.059,27.966,0.034,41.949,0.019c4.485-0.005,6.762-2.401,6.89-6.785
		c0.112-3.826-0.136-7.667,0.094-11.482c0.199-3.306-1.075-4.36-4.311-4.289C46.711,57.516,38.884,57.398,31.061,57.397z"/>
	<path fill-rule="evenodd" clip-rule="evenodd" fill="#4A4A4A" d="M30.025,17.264c1.839,0.167,3.333,0.214,4.797,0.452
		c4.561,0.742,7.056,3.446,7.18,8.086c0.119,4.413-2.855,7.779-7.629,8.204c-3.549,0.315-7.224-0.191-6.352,5.314
		c0.207,1.306-1.025,2.07-2.284,2.127c-1.501,0.068-2.674-0.716-2.688-2.285c-0.061-6.453-0.506-12.962,0.202-19.339
		C23.687,15.901,27.911,18.108,30.025,17.264z M31.196,29.517c2.938-0.193,5.333-0.693,5.114-3.875
		c-0.215-3.132-2.743-3.215-5.15-3.388c-3.071-0.222-2.882,1.777-2.999,3.875C28.015,28.765,29.062,29.843,31.196,29.517z"/>
	<path fill-rule="evenodd" clip-rule="evenodd" fill="#4A4A4A" d="M49.793,68.748c-1.094,1.819-2.864,2.795-4.482,3.915
		c-1.669,1.156-2.023-0.203-2.886-1.332c-1.34-1.754-21.834-1.952-22.932-0.143c-2.849,4.695-4.105-0.243-5.889-0.911
		c-1.781-0.666-1.969-2.525-0.076-3.282c1.781-0.713,3.115-5.618,5.817-1.035c0.901,1.528,2.33,0.99,3.545,1.007
		c5.312,0.073,10.626,0.069,15.938,0.007c1.383-0.017,3.16,0.601,3.806-1.397c0.598-1.851,1.654-1.886,2.958-0.841
		C47.095,65.939,49.08,66.667,49.793,68.748z"/>
</g>
</svg>
