<?xml version="1.0" encoding="UTF-8" standalone="no"?>
<svg width="32px" height="32px" viewBox="0 0 32 32" version="1.1" xmlns="http://www.w3.org/2000/svg" xmlns:xlink="http://www.w3.org/1999/xlink">
    <!-- Generator: Sketch 3.7 (28169) - http://www.bohemiancoding.com/sketch -->
    <title>speedometer</title>
    <desc>Created with Sketch.</desc>
    <defs></defs>
    <g id="Page-1" stroke="none" stroke-width="1" fill="none" fill-rule="evenodd">
        <g id="car-icons" transform="translate(-72.000000, -164.000000)" stroke="#144566" stroke-width="2">
            <g id="speedometer" transform="translate(73.000000, 165.000000)">
                <circle id="Oval" cx="15" cy="15" r="15"></circle>
                <circle id="Oval" cx="15" cy="15" r="2"></circle>
                <path d="M16.414,13.586 L20.25,9.75" id="Shape"></path>
                <path d="M12,24 L18,24" id="Shape"></path>
                <path d="M26,15 L30,15" id="Shape"></path>
                <path d="M22.778,7.222 L25.606,4.394" id="Shape"></path>
                <path d="M4.498,25.709 L7.222,22.778 C2.927,18.483 2.927,11.517 7.222,7.221 C11.517,2.926 18.483,2.926 22.779,7.221 C27.074,11.516 27.074,18.482 22.779,22.778 L25.597,25.616" id="Shape"></path>
                <path d="M7.222,7.222 L4.394,4.394" id="Shape"></path>
                <path d="M0,15 L4,15" id="Shape"></path>
                <path d="M15,0 L15,4" id="Shape"></path>
            </g>
        </g>
    </g>
</svg>