<?xml version="1.0" encoding="UTF-8" standalone="no"?>
<svg width="24px" height="32px" viewBox="0 0 24 32" version="1.1" xmlns="http://www.w3.org/2000/svg" xmlns:xlink="http://www.w3.org/1999/xlink">
    <!-- Generator: Sketch 3.7 (28169) - http://www.bohemiancoding.com/sketch -->
    <title>traffic_light</title>
    <desc>Created with Sketch.</desc>
    <defs></defs>
    <g id="Page-1" stroke="none" stroke-width="1" fill="none" fill-rule="evenodd">
        <g id="car-icons" transform="translate(-436.000000, -164.000000)" stroke="#144566" stroke-width="2">
            <g id="traffic_light" transform="translate(437.000000, 165.000000)">
                <path d="M18,27 C18,28.656 16.656,30 15,30 L7,30 C5.344,30 4,28.656 4,27 L4,3 C4,1.344 5.344,0 7,0 L15,0 C16.656,0 18,1.344 18,3 L18,27 L18,27 Z" id="Shape"></path>
                <circle id="Oval" cx="11" cy="6" r="3"></circle>
                <circle id="Oval" cx="11" cy="15" r="3"></circle>
                <circle id="Oval" cx="11" cy="24" r="3"></circle>
                <polyline id="Shape" points="18 12 22 12 22 13 18 17"></polyline>
                <polyline id="Shape" points="18 3 22 3 22 4 18 8"></polyline>
                <polyline id="Shape" points="18 21 22 21 22 22 18 26"></polyline>
                <polyline id="Shape" points="4 12 0 12 0 13 4 17"></polyline>
                <polyline id="Shape" points="4 3 0 3 0 4 4 8"></polyline>
                <polyline id="Shape" points="4 21 0 21 0 22 4 26"></polyline>
            </g>
        </g>
    </g>
</svg>