<?xml version="1.0" encoding="UTF-8" standalone="no"?>
<svg width="70px" height="124px" viewBox="0 0 70 124" version="1.1" xmlns="http://www.w3.org/2000/svg" xmlns:xlink="http://www.w3.org/1999/xlink">
    <!-- Generator: Sketch 3.7.1 (28215) - http://www.bohemiancoding.com/sketch -->
    <title>Oval 6</title>
    <desc>Created with Sketch.</desc>
    <defs></defs>
    <g id="Page-1" stroke="none" stroke-width="1" fill="none" fill-rule="evenodd">
        <g id="Artboard" transform="translate(-112.000000, -240.000000)" fill="#4A4A4A">
            <path d="M135.103034,294.794525 C135.125109,294.60117 135.153201,294.407271 135.187452,294.213027 L137.350757,281.944312 C134.701989,284.726673 130.717852,288.735411 130.215957,290.280401 C129.567329,292.277083 127.088716,303.448229 126.663279,305.372662 C126.329713,307.478262 124.548203,309.085714 122.400558,309.085714 C120.01535,309.085714 118.081758,307.102975 118.081758,304.657143 C118.081758,304.180522 118.155185,303.721487 118.291073,303.291283 C118.84959,300.037143 120.48966,290.969608 122.139622,286.547716 C123.893935,281.846166 137.981881,268.339005 142.480105,265.462893 C144.560519,263.69974 147.380812,262.840821 150.277103,263.351515 C154.235778,264.049536 157.187063,267.103219 157.941558,270.817983 C160.781851,276.425896 166.127883,286.89545 166.769637,287.527597 C167.595897,288.341488 178.632421,296.385124 179.957152,297.349848 C181.183498,298.131112 182,299.524923 182,301.114286 C182,303.560118 180.066407,305.542857 177.6812,305.542857 C176.693892,305.542857 175.783963,305.203139 175.056517,304.63148 C171.867367,302.667704 160.686832,295.707477 159.242354,293.767544 C157.80684,291.83965 156.322642,287.396704 155.91153,286.113246 L153.901478,297.512814 C153.731147,298.478813 153.420499,299.384818 152.994184,300.213551 L151.802281,306.128504 L168.263278,327.01671 C169.689426,328.925848 170.742637,332.866022 170.742637,332.866022 L174.853336,355.069267 C175.00763,355.657533 175.08992,356.276055 175.08992,356.914286 C175.08992,360.827618 171.996171,364 168.179839,364 C164.520174,364 161.524984,361.082734 161.285236,357.392317 L161.263749,357.395096 C161.263749,357.395096 157.816426,337.014893 157.455838,335.027067 C157.09525,333.03924 156.498919,332.872882 155.227462,331.4242 C153.956006,329.975518 143.3677,317.788029 143.3677,317.788029 L143.339506,317.643896 C141.980267,324.724109 140.557349,331.624841 139.669399,334.499698 C139.551777,335.508274 139.214194,336.507372 138.640134,337.42606 L125.089114,359.112225 C123.016875,362.428501 118.639908,363.431547 115.327967,361.362017 C112.009273,359.288267 110.99754,354.920839 113.071061,351.602512 L126.218138,330.562792 C127.270733,328.746199 128.388935,325.050397 128.388935,325.050397 L135.103034,294.794525 Z M152.632159,261.257143 C158.356657,261.257143 162.997279,256.498569 162.997279,250.628571 C162.997279,244.758574 158.356657,240 152.632159,240 C146.907661,240 142.267039,244.758574 142.267039,250.628571 C142.267039,256.498569 146.907661,261.257143 152.632159,261.257143 Z" id="Oval-6"></path>
        </g>
    </g>
</svg>